<svg width="154" height="132" viewBox="0 0 154 132" fill="none" xmlns="http://www.w3.org/2000/svg">
<path d="M78.6664 17.7956L58.7721 20.7575C41.1246 23.3848 28.9464 39.8342 31.5713 57.4983L35.806 85.9964C38.4308 103.661 54.8647 115.85 72.5122 113.223L92.4065 110.261C110.054 107.634 122.232 91.1844 119.607 73.5203L115.373 45.0222C112.748 27.3581 96.3139 15.1683 78.6664 17.7956Z" fill="#FED587"/>
<path d="M72.537 23.5738L59.4846 22.7124L60.7299 3.91799C60.8864 1.60132 62.8618 -0.141082 65.1763 0.00901198C70.0726 0.328778 73.7888 4.58363 73.4694 9.48453L72.537 23.5673V23.5738Z" fill="#FED588"/>
<path d="M69.8052 27.248L63.5463 15.7756L80.0737 6.74382C82.0948 5.62791 84.6375 6.3849 85.7524 8.41444C88.1125 12.7215 86.5021 18.151 82.1991 20.5134L69.8183 27.2806L69.8052 27.248Z" fill="#FED588"/>
<path d="M27.4339 97.2311C19.5255 93.7528 11.6106 90.2681 3.70222 86.7898C0.266353 85.2758 -1.0441 81.0797 0.911802 77.8755C8.22036 65.9136 15.5289 53.9583 22.8375 41.9964C23.8415 40.3519 25.5562 39.2686 27.4665 39.0663C29.5332 38.8444 31.6065 38.6291 33.6732 38.4072C37.5654 37.9961 40.8579 41.2525 40.4928 45.1549C39.0259 60.8169 37.5589 76.4724 36.092 92.1344C35.6943 96.3436 31.3 98.9344 27.4339 97.2311Z" fill="#F8B708"/>
<path d="M129.239 86.1369C136.534 81.497 143.83 76.8637 151.125 72.2238C154.294 70.2073 154.959 65.8611 152.54 62.9897C143.51 52.2743 134.481 41.5589 125.451 30.8435C124.212 29.3686 122.354 28.5594 120.431 28.6442C118.351 28.7421 116.271 28.8335 114.191 28.9314C110.279 29.1141 107.515 32.8338 108.467 36.6319C112.281 51.8893 116.095 67.1467 119.909 82.4041C120.933 86.5089 125.672 88.4014 129.239 86.1304V86.1369Z" fill="#F8B708"/>
<path d="M90.7596 63.9688C89.8533 63.9688 89.0449 63.3358 88.8493 62.4156C88.3538 60.0598 88.8167 57.6583 90.1598 55.6418C91.4572 53.6971 93.4783 52.3397 95.708 51.9221C98.0355 51.4848 100.487 52.0657 102.436 53.5209C104.425 55.0023 105.716 57.2602 105.976 59.7139C106.087 60.7907 105.311 61.75 104.236 61.8675C103.16 61.9784 102.202 61.2018 102.084 60.1251C101.941 58.7351 101.237 57.5017 100.102 56.6598C99.0265 55.8572 97.69 55.5309 96.4317 55.7658C95.2255 55.9942 94.1237 56.7382 93.4131 57.8084C92.6633 58.9374 92.4025 60.2817 92.6764 61.5999C92.898 62.6571 92.2265 63.6947 91.1638 63.9231C91.0269 63.9492 90.89 63.9688 90.7596 63.9688Z" fill="#713811"/>
<path d="M48.4273 70.0248C47.4689 70.0248 46.6278 69.3135 46.4909 68.3346C46.1584 65.9527 46.7908 63.5838 48.2708 61.6717C49.6986 59.8249 51.811 58.6111 54.0668 58.3501C56.4204 58.076 58.8196 58.833 60.6712 60.4187C62.5554 62.0371 63.6768 64.3799 63.7681 66.8467C63.8072 67.93 62.9596 68.8305 61.8839 68.8697C60.8082 68.9089 59.9019 68.0605 59.8628 66.9837C59.8172 65.5872 59.1978 64.3081 58.1286 63.388C57.1115 62.507 55.7945 62.0894 54.5297 62.2395C53.3105 62.383 52.1631 63.0487 51.3742 64.0667C50.5462 65.1369 50.1876 66.4617 50.3767 67.7929C50.5266 68.8632 49.7769 69.8551 48.7076 69.9987C48.6163 70.0117 48.5251 70.0183 48.4338 70.0183L48.4273 70.0248Z" fill="#713811"/>
<path d="M50.331 102.354H108.5V122.59C108.5 127.485 104.529 131.459 99.6393 131.459H59.1978C54.308 131.459 50.3375 127.485 50.3375 122.59V102.354H50.331Z" fill="#FED587"/>
<mask id="mask0_231_997" style="mask-type:luminance" maskUnits="userSpaceOnUse" x="50" y="102" width="59" height="30">
<path d="M50.331 102.354H108.5V122.59C108.5 127.485 104.529 131.459 99.6393 131.459H59.1978C54.308 131.459 50.3375 127.485 50.3375 122.59V102.354H50.331Z" fill="white"/>
</mask>
<g mask="url(#mask0_231_997)">
<path d="M119.798 114.061H40.7795V137.078H119.798V114.061Z" fill="#DE4A4A"/>
</g>
<path d="M75.7512 91.6188C69.3619 91.6188 64.3157 89.6415 61.5709 88.258C60.606 87.7751 60.2148 86.5939 60.7038 85.6281C61.1927 84.6622 62.3663 84.2707 63.3312 84.7601C66.3628 86.2872 72.6022 88.6495 80.3606 87.3052C87.7474 86.0261 92.7023 82.0193 95.0038 79.7483C95.7731 78.9848 97.0119 78.9913 97.7681 79.7613C98.5309 80.5314 98.5244 81.7713 97.7551 82.5283C95.1342 85.1256 89.4686 89.7002 81.0256 91.162C79.1871 91.4817 77.4202 91.6188 75.7447 91.6188H75.7512Z" fill="#F8B708"/>
<path d="M80.2824 89.0997C79.337 89.0997 78.509 88.4145 78.3525 87.4552L76.6118 76.6484C76.4423 75.5782 77.166 74.5732 78.2287 74.4036C79.2914 74.2339 80.3019 74.9582 80.4714 76.022L82.2122 86.8288C82.3817 87.899 81.658 88.904 80.5953 89.0736C80.491 89.0932 80.3867 89.0997 80.2824 89.0997Z" fill="#F8B708"/>
<path d="M73.9226 71.9077L81.0068 70.5614C82.2046 70.3338 83.3695 71.1221 83.5981 72.3274L83.6516 72.6095C84.0772 74.8535 82.6035 77.02 80.3616 77.446L77.0501 78.0753C74.8083 78.5013 72.6438 77.0262 72.2182 74.7823L72.1647 74.5002C71.9373 73.3012 72.7248 72.1353 73.929 71.9065L73.9226 71.9077Z" fill="#713811"/>
</svg>
