<svg width="154" height="134" viewBox="0 0 154 134" fill="none" xmlns="http://www.w3.org/2000/svg">
<path d="M86.6286 19.3337L66.8048 19.4446C49.2199 19.5429 35.0442 33.8914 35.1424 51.4928L35.3009 79.8899C35.3991 97.4913 49.7341 111.68 67.3189 111.582L87.1427 111.471C104.728 111.373 118.903 97.0245 118.805 79.423L118.647 51.026C118.548 33.4245 104.213 19.2354 86.6286 19.3337Z" fill="#FED587"/>
<path d="M79.8597 24.1087L67.2455 21.4459L71.0818 3.28177C71.5574 1.04342 73.7229 -0.384466 75.9592 0.0915054C80.6951 1.08847 83.7217 5.75812 82.7257 10.4921L79.8533 24.1087H79.8597Z" fill="#FED588"/>
<path d="M76.6853 27.3183L72.1807 15.2517L89.5629 8.74891C91.6899 7.9449 94.0675 9.03836 94.8708 11.1738C96.5736 15.7084 94.241 20.7833 89.7171 22.4813L76.6981 27.3568V27.3247L76.6853 27.3183Z" fill="#FED588"/>
<path d="M24.5835 89.6835C17.3479 85.1811 10.1122 80.6786 2.88302 76.1826C-0.259281 74.2273 -0.953286 69.95 1.39862 67.0942C10.1958 56.4491 18.9929 45.7977 27.7901 35.1527C28.9982 33.6862 30.8231 32.8693 32.7188 32.94C34.7687 33.0172 36.8186 33.088 38.8685 33.1651C42.724 33.3066 45.4808 36.9472 44.5811 40.6971C40.9697 55.7738 37.3519 70.8441 33.7405 85.9208C32.7702 89.973 28.1178 91.8833 24.5771 89.6835H24.5835Z" fill="#F8B708"/>
<path d="M129.417 89.6835C136.653 85.1811 143.888 80.6786 151.117 76.1826C154.26 74.2273 154.954 69.95 152.602 67.0942C143.805 56.4491 135.007 45.7977 126.21 35.1527C125.002 33.6862 123.177 32.8693 121.282 32.94C119.232 33.0172 117.182 33.088 115.132 33.1651C111.276 33.3066 108.52 36.9472 109.419 40.6971C113.031 55.7738 116.648 70.8441 120.26 85.9208C121.23 89.973 125.883 91.8833 129.423 89.6835H129.417Z" fill="#F8B708"/>
<path d="M48.5139 104.831H105.846V124.777C105.846 129.601 101.933 133.518 97.1135 133.518H57.2532C52.4337 133.518 48.5203 129.601 48.5203 124.777V104.831H48.5139Z" fill="#FED587"/>
<mask id="mask0_231_913" style="mask-type:luminance" maskUnits="userSpaceOnUse" x="48" y="104" width="58" height="30">
<path d="M48.5139 104.831H105.846V124.777C105.846 129.601 101.933 133.518 97.1135 133.518H57.2532C52.4337 133.518 48.5203 129.601 48.5203 124.777V104.831H48.5139Z" fill="white"/>
</mask>
<g mask="url(#mask0_231_913)">
<path d="M116.982 116.376H39.0997V139.062H116.982V116.376Z" fill="#DE4A4A"/>
</g>
<path d="M77.2765 87.0977C76.229 87.0977 75.368 86.2551 75.3487 85.2002L75.1559 74.4137C75.1366 73.346 75.9849 72.4712 77.0516 72.4519H77.0837C78.1311 72.4519 78.9922 73.2945 79.0115 74.3494L79.2043 85.1359C79.2235 86.2036 78.3753 87.0784 77.3086 87.0977H77.2765Z" fill="#F8B708"/>
<path d="M70.5742 85.1682H83.7924C84.6278 85.1682 85.3089 85.85 85.3089 86.6862V93.3047C85.3089 97.7943 81.6654 101.435 77.1865 101.435C72.7012 101.435 69.0641 97.7879 69.0641 93.3047V86.6862C69.0641 85.85 69.7452 85.1682 70.5806 85.1682H70.5742Z" fill="#DE4A4A"/>
<path d="M73.5321 68.8313L80.6391 68.7916C81.8407 68.7849 82.8293 69.757 82.8361 70.9662L82.8377 71.2492C82.8502 73.5004 81.0355 75.3373 78.7864 75.3499L75.4642 75.3684C73.2152 75.381 71.38 73.5645 71.3675 71.3133L71.3659 71.0303C71.3592 69.8276 72.3304 68.838 73.5385 68.8313L73.5321 68.8313Z" fill="#713811"/>
<path d="M57.5488 67.8403C60.3376 67.686 62.4389 64.6114 62.2397 60.9966C62.0405 57.3818 59.6051 54.5646 56.8162 54.7189C54.0273 54.8733 51.926 57.9478 52.1253 61.5626C52.3245 65.1839 54.7599 67.9947 57.5488 67.8403Z" fill="#713811"/>
<path d="M105.262 67.2999C105.223 67.2999 105.185 67.2999 105.146 67.2999C104.086 67.2356 103.276 66.3222 103.34 65.261C103.424 63.8845 102.935 62.5788 101.972 61.569C101.053 60.6106 99.7996 60.0832 98.5465 60.1024C97.3384 60.1282 96.1496 60.6749 95.2821 61.6011C94.3696 62.5788 93.8941 63.8459 93.9519 65.1645C93.9969 66.2322 93.1744 67.1262 92.1077 67.1777C91.0281 67.2227 90.1477 66.3994 90.0963 65.3317C89.9935 62.9647 90.8353 60.7006 92.4675 58.9576C94.0419 57.2788 96.2267 56.2882 98.4694 56.2432C100.796 56.1789 103.09 57.1566 104.754 58.8932C106.45 60.6556 107.337 63.0612 107.189 65.4925C107.125 66.5152 106.277 67.3063 105.268 67.3063L105.262 67.2999Z" fill="#713811"/>
</svg>
