<svg width="248" height="243" viewBox="0 0 248 243" fill="none" xmlns="http://www.w3.org/2000/svg">
<path d="M92.4723 229.486C88.2244 220.878 77.047 218.063 71.2592 217.133C69.4007 216.841 67.9139 215.512 67.4095 213.706C65.9493 208.446 63.7457 200.131 62.3385 195.11C61.542 192.215 62.6571 189.133 65.2059 187.539C65.7103 187.221 66.2413 186.875 66.7458 186.503C78.8524 177.976 89.7377 160.656 84.3216 145.54C78.64 129.681 54.9843 118.975 29.8949 127.689C28.1957 146.869 26.47 166.075 24.7708 185.255C24.4257 189.001 24.7708 192.799 25.7797 196.412L31.4879 217.053H26.9213C28.9657 225.421 31.01 233.736 33.0543 242.077C58.303 242.184 77.5249 242.104 86.7907 242.077C88.1978 242.077 91.7555 242.077 93.4812 239.766C95.9503 236.472 93.0564 230.575 92.5255 229.486H92.4723Z" fill="#F8B600"/>
<path d="M167.741 229.406C164.342 222.712 156.961 219.524 151.227 218.01C149.501 217.558 148.519 215.752 148.996 214.052L165.988 154.493C154.572 151.226 143.156 147.985 131.739 144.717C130.199 150.137 128.659 155.529 127.12 160.948C121.81 179.544 116.526 198.139 111.216 216.735L107.393 231.186C105.933 236.738 110.101 242.158 115.836 242.158C131.288 242.158 146.74 242.131 162.165 242.104C163.147 242.131 166.944 242.184 168.829 239.687C171.272 236.446 168.643 231.266 167.714 229.406H167.741Z" fill="#F8B600"/>
<path d="M231.194 229.459C226.867 220.958 216.087 218.116 210.485 217.16C208.786 216.867 207.406 215.672 206.848 214.052C204.299 206.427 196.998 184.724 193.387 173.912C192.033 169.901 191.794 165.65 192.618 161.506C193.334 157.946 193.998 154.201 194.556 150.322C196.812 134.41 196.919 120.224 196.175 108.589L32.2578 107.367C29.8418 110.634 27.2399 114.513 24.6646 118.949C24.0805 118.949 23.4964 118.949 22.8858 118.976L2.28327 172.982C0.929238 176.515 0.238941 180.234 0.212392 184.007L0.0265452 216.628H0V233.816C0 238.385 3.69039 242.078 8.23038 242.104C31.4082 242.237 48.5327 242.157 55.6745 242.024C57.2144 241.998 60.6393 241.865 62.3385 239.607C64.8076 236.313 61.781 230.416 61.2234 229.326C56.6569 220.374 44.4441 217.718 38.4173 216.921C36.8243 216.708 35.6296 215.327 35.6296 213.706C35.6827 206.693 35.7092 199.68 35.7623 192.693C35.7623 189.691 37.7005 187.035 40.5678 186.185C41.1519 186.026 41.736 185.813 42.3201 185.627C51.0284 182.572 60.1614 176.09 65.5776 167.775C66.9847 165.597 69.4273 164.349 72.0026 164.614C76.9408 165.092 83.2596 166.102 90.2953 168.227C106.066 172.956 111.774 179.145 124.226 183.422C131.368 185.893 141.987 188.124 156.457 186.53C158.475 186.318 160.36 187.566 160.997 189.506C165.404 202.602 169.785 215.725 174.192 228.822L175.652 233.896C177.059 238.81 181.546 242.184 186.67 242.184H225.619C226.601 242.21 230.398 242.264 232.283 239.766C234.725 236.525 232.097 231.345 231.168 229.486L231.194 229.459Z" fill="#FED587"/>
<mask id="mask0_251_724" style="mask-type:luminance" maskUnits="userSpaceOnUse" x="0" y="107" width="234" height="136">
<path d="M231.194 229.459C226.867 220.958 216.087 218.116 210.485 217.16C208.786 216.867 207.406 215.672 206.848 214.052C204.299 206.427 196.998 184.724 193.387 173.912C192.033 169.901 191.794 165.65 192.618 161.506C193.334 157.946 193.998 154.201 194.556 150.322C196.812 134.41 196.919 120.224 196.175 108.589L32.2578 107.367C29.8418 110.634 27.2399 114.513 24.6646 118.949C24.0805 118.949 23.4964 118.949 22.8858 118.976L2.28327 172.982C0.929238 176.515 0.238941 180.234 0.212392 184.007L0.0265452 216.628H0V233.816C0 238.385 3.69039 242.078 8.23038 242.104C31.4082 242.237 48.5327 242.157 55.6745 242.024C57.2144 241.998 60.6393 241.865 62.3385 239.607C64.8076 236.313 61.781 230.416 61.2234 229.326C56.6569 220.374 44.4441 217.718 38.4173 216.921C36.8243 216.708 35.6296 215.327 35.6296 213.706C35.6827 206.693 35.7092 199.68 35.7623 192.693C35.7623 189.691 37.7005 187.035 40.5678 186.185C41.1519 186.026 41.736 185.813 42.3201 185.627C51.0284 182.572 60.1614 176.09 65.5776 167.775C66.9847 165.597 69.4273 164.349 72.0026 164.614C76.9408 165.092 83.2596 166.102 90.2953 168.227C106.066 172.956 111.774 179.145 124.226 183.422C131.368 185.893 141.987 188.124 156.457 186.53C158.475 186.318 160.36 187.566 160.997 189.506C165.404 202.602 169.785 215.725 174.192 228.822L175.652 233.896C177.059 238.81 181.546 242.184 186.67 242.184H225.619C226.601 242.21 230.398 242.264 232.283 239.766C234.725 236.525 232.097 231.345 231.168 229.486L231.194 229.459Z" fill="white"/>
</mask>
<g mask="url(#mask0_251_724)">
<path d="M144.058 113.317C137.686 133.533 121.04 147.055 103.782 146.922C84.6933 146.763 70.4361 129.575 66.7192 116.319C64.5156 108.509 71.0999 101.018 79.0913 102.32C100.729 105.986 122.394 109.651 144.032 113.317H144.058Z" fill="#DE4A4A"/>
</g>
<path d="M115.863 108.987C117.801 101.071 119.872 93.0215 122.102 84.8395C126.668 68.077 131.553 52.0584 136.598 36.7835C140.155 22.6244 152.05 12.2109 166.174 12.2109H188.98C202.786 12.2109 213.963 24.4043 213.963 39.44C213.963 41.9371 215.822 43.9295 218.079 43.9295H237.991C243.513 43.9295 248 48.8174 248 54.8477C248 75.5418 232.601 86.0084 213.618 86.0084H203.742C202.202 86.1678 201.246 86.6725 200.689 87.0444C198.538 88.532 198.166 91.0557 196.759 102.797C196.494 104.949 196.361 106.118 196.255 107.074C196.255 107.074 196.175 107.818 196.095 108.509C195.724 112.148 196.069 121.977 196.069 121.977C169.307 117.621 142.545 113.291 115.783 108.934L115.863 108.987Z" fill="#FED587"/>
<mask id="mask1_251_724" style="mask-type:luminance" maskUnits="userSpaceOnUse" x="115" y="12" width="133" height="110">
<path d="M115.863 108.987C117.801 101.071 119.872 93.0215 122.102 84.8395C126.668 68.077 131.553 52.0584 136.598 36.7835C140.155 22.6244 152.05 12.2109 166.174 12.2109H188.98C202.786 12.2109 213.963 24.4043 213.963 39.44C213.963 41.9371 215.822 43.9295 218.079 43.9295H237.991C243.513 43.9295 248 48.8174 248 54.8477C248 75.5418 232.601 86.0084 213.618 86.0084H203.742C202.202 86.1678 201.246 86.6725 200.689 87.0444C198.538 88.532 198.166 91.0557 196.759 102.797C196.494 104.949 196.361 106.118 196.255 107.074C196.255 107.074 196.175 107.818 196.095 108.509C195.724 112.148 196.069 121.977 196.069 121.977C169.307 117.621 142.545 113.291 115.783 108.934L115.863 108.987Z" fill="white"/>
</mask>
<g mask="url(#mask1_251_724)">
<path d="M230.663 74.9575C225.778 74.9575 221.822 72.673 220.176 71.5307C219.141 70.8134 218.875 69.3789 219.592 68.3429C220.309 67.3068 221.742 67.0412 222.778 67.7584C224.318 68.821 228.433 71.1853 233.106 70.1227C239.132 68.7148 243.513 62.2595 243.46 54.7682C243.46 53.4931 244.469 52.457 245.743 52.457C247.018 52.457 248.027 53.4931 248.053 54.7416C248.106 64.3581 242.265 72.7261 234.141 74.6122C232.946 74.8778 231.778 75.0107 230.663 75.0107V74.9575Z" fill="#F8B600"/>
<path d="M241.548 39.1215C238.469 40.0512 235.575 47.0113 239.026 51.607C242.796 56.6278 251.027 54.8745 252.513 51.9523C254.558 47.9676 246.035 37.7401 241.522 39.1215H241.548Z" fill="#70370F"/>
<path d="M219.99 91.8794L128.792 83.8037C120.987 83.113 114.084 88.8776 113.393 96.6877L117.827 97.0862L111.323 112.441L139.784 119.826L143.819 114.035C145.97 105.773 153.749 100.274 162.245 101.018L218.716 106.012L219.964 91.8529L219.99 91.8794Z" fill="#DE4A4A"/>
</g>
<path d="M127.624 116.505C124.544 118.923 120.111 118.418 117.349 115.655L114.243 112.574L58.1172 56.4152C55.1436 53.4399 55.1436 48.6051 58.1172 45.6298L71.1796 32.5599C73.1443 30.5941 75.7992 29.3455 78.5604 29.2924C81.6401 29.2393 83.0473 30.3284 84.0827 31.6301C84.5075 31.8958 84.9323 32.2411 85.304 32.613L125.951 73.2839C124.199 78.6235 122.42 83.9365 120.668 89.5948L80.1268 49.0567C79.5958 48.5254 78.879 48.2598 78.1621 48.2598C77.4453 48.2598 76.7284 48.5254 76.1975 49.0567C75.1089 50.1459 75.1089 51.8726 76.1975 52.9618L118.836 95.5985L128.341 105.109C131.527 108.323 131.288 113.663 127.624 116.532V116.505Z" fill="#C6C6C6"/>
<path d="M119.394 75.6214C132.615 77.0825 145.811 78.517 159.032 79.9781C162.298 80.3234 165.218 78.703 166.174 75.9668C168.988 68.0504 173.024 56.5478 175.971 48.2595C177.139 44.9389 175.015 41.1667 171.245 39.8119L144.164 30.1157C141.058 29 137.66 29.85 135.908 32.2143C129.058 41.4855 120.774 54.9274 113.5 65.3939C110.712 69.4053 113.951 75.037 119.42 75.6214H119.394Z" fill="#F8B600"/>
<path d="M197.821 46.4796C197.131 46.4796 196.627 45.6827 196.759 44.8326C197.158 42.0964 199.043 39.9712 201.22 39.9712C203.397 39.9712 205.255 42.0964 205.68 44.8326C205.813 45.6827 205.282 46.4796 204.618 46.4796H197.848H197.821Z" fill="#70370F"/>
<path d="M201.273 51.341C203.689 51.341 205.653 48.7908 205.653 45.6561C205.653 42.5214 203.689 39.9712 201.273 39.9712C198.857 39.9712 196.892 42.5214 196.892 45.6561C196.892 48.7908 198.857 51.341 201.273 51.341Z" fill="#70370F"/>
<path d="M195.565 18.5868L186.724 14.5489L192.538 1.82429C193.255 0.256962 195.087 -0.433727 196.653 0.283527C199.972 1.79773 201.432 5.72934 199.919 9.04996L195.565 18.5868Z" fill="#FED587"/>
<path d="M192.724 20.4464L191.396 10.8298L205.255 8.91717C206.954 8.67808 208.521 9.8735 208.76 11.5737C209.264 15.1865 206.715 18.5337 203.105 19.0384L192.724 20.4729V20.4464Z" fill="#FED587"/>
<path d="M186.883 117.408L191.741 108.987L203.848 115.974C205.335 116.824 205.839 118.737 204.99 120.224C203.158 123.386 199.122 124.475 195.963 122.642L186.883 117.408Z" fill="#FED587"/>
<path d="M193.149 114.646L191.821 105.029L205.68 103.116C207.379 102.877 208.946 104.073 209.184 105.773C209.689 109.386 207.14 112.733 203.529 113.238L193.149 114.672V114.646Z" fill="#FED587"/>
<path d="M31.9392 118.896C19.5936 119.719 8.17729 113.344 3.37181 103.169C-1.38057 93.1279 0.876147 80.5361 8.86758 71.69C11.7084 68.5553 16.9652 69.8039 17.8679 73.9746C18.8502 78.5969 20.5229 84.0161 23.3902 89.701C27.6382 98.069 32.8684 103.86 36.6385 107.393L31.9392 118.896Z" fill="#FED587"/>
<path d="M14.1298 115.945L27.1439 114.317L28.2709 123.332L18.7079 124.528C15.2568 124.96 12.115 122.516 11.6833 119.063C11.4922 117.534 12.5722 116.114 14.1265 115.919L14.1298 115.945Z" fill="#FED587"/>
<path d="M198.697 133.905C198.618 134.915 197.795 135.738 196.786 135.791C187.44 136.243 176.794 136.216 165.086 135.207C153.244 134.197 142.625 132.364 133.412 130.292C132.084 130 131.447 128.486 132.084 127.29L134.819 122.349C135.244 121.579 136.12 121.154 136.996 121.34C145.651 123.093 155.342 124.581 165.935 125.511C177.298 126.493 187.759 126.626 197.078 126.307C198.299 126.254 199.281 127.29 199.175 128.539L198.697 133.932V133.905Z" fill="#70370F"/>
</svg>
