<svg width="412" height="424" viewBox="0 0 412 424" fill="none" xmlns="http://www.w3.org/2000/svg">
<g clip-path="url(#clip0_255_494)">
<path d="M129.44 382.549H185.901C203.983 382.549 218.67 397.239 218.67 415.326C218.67 419.792 215.054 423.409 210.588 423.409H135.677C125.971 423.409 118.074 415.51 118.074 405.803V393.917C118.074 387.642 123.167 382.549 129.44 382.549Z" fill="#343030"/>
<path d="M156.342 383.804C136.526 385.575 116.709 387.347 96.8925 389.119C73.3488 329.396 49.8051 269.674 26.2615 209.914L88.2573 186.107C112.576 249.41 136.858 312.712 161.176 376.015C162.542 379.559 160.143 383.434 156.342 383.767V383.804Z" fill="#1A6495"/>
<path d="M107.668 236.638C68.2194 242.027 28.7708 247.416 -10.6777 252.805V184.667H92.7594C97.7412 201.979 102.686 219.327 107.668 236.638Z" fill="#0081B3"/>
<path d="M-45.5504 383.139H-95.6637C-101.679 383.139 -105.59 376.754 -102.823 371.401C-71.8248 311.125 -40.79 250.849 -9.79208 190.536L49.3992 220.693C21.8332 272.368 -5.69593 324.044 -33.2619 375.757C-35.6975 380.297 -40.421 383.139 -45.5504 383.139Z" fill="#0081B3"/>
<path d="M169.11 406.393C163.206 394.434 147.67 390.521 139.625 389.23C137.042 388.824 134.976 386.978 134.274 384.468C132.245 377.16 129.182 365.606 127.226 358.63C126.119 354.607 127.669 350.325 131.212 348.11C131.913 347.667 132.651 347.188 133.352 346.671C150.179 334.822 165.309 310.756 157.781 289.754C149.884 267.718 117.004 252.842 82.1315 264.949C79.7697 291.599 77.3711 318.286 75.0093 344.936C74.5296 350.14 75.0093 355.419 76.4116 360.439L84.3456 389.119H77.9984C80.8399 400.746 83.6814 412.299 86.5229 423.889C121.617 424.037 148.334 423.926 161.213 423.889C163.169 423.889 168.114 423.889 170.512 420.678C173.944 416.101 169.922 407.907 169.184 406.393H169.11Z" fill="#F8B600"/>
<path d="M273.728 406.283C269.005 396.981 258.746 392.552 250.775 390.448C248.376 389.82 247.011 387.31 247.675 384.948L271.293 302.193C255.425 297.653 239.557 293.149 223.689 288.609C221.548 296.139 219.408 303.632 217.268 311.162C209.887 337 202.544 362.838 195.163 388.676L189.849 408.756C187.82 416.47 193.613 424 201.584 424C223.061 424 244.538 423.963 265.979 423.926C267.344 423.963 272.621 424.037 275.241 420.567C278.636 416.064 274.983 408.866 273.691 406.283H273.728Z" fill="#F8B600"/>
<path d="M361.925 406.356C355.91 394.545 340.927 390.595 333.141 389.267C330.779 388.861 328.86 387.199 328.085 384.948C324.543 374.354 314.395 344.198 309.376 329.175C307.494 323.601 307.162 317.696 308.306 311.937C309.302 306.991 310.225 301.787 311 296.398C314.136 274.288 314.284 254.577 313.251 238.41L85.4158 236.712C82.0577 241.252 78.4413 246.641 74.8618 252.805C74.0499 252.805 73.2381 252.805 72.3893 252.842L43.7531 327.883C41.8711 332.792 40.9116 337.96 40.8747 343.201L40.6164 388.528H40.5795V412.41C40.5795 418.759 45.7089 423.889 52.0192 423.926C84.2349 424.111 108.037 424 117.964 423.815C120.104 423.779 124.864 423.594 127.226 420.457C130.658 415.88 126.451 407.685 125.676 406.172C119.329 393.733 102.354 390.042 93.9771 388.934C91.763 388.639 90.1024 386.72 90.1024 384.468C90.1762 374.723 90.2131 364.979 90.2869 355.271C90.2869 351.1 92.9808 347.409 96.9662 346.228C97.7781 346.007 98.5899 345.711 99.4018 345.453C111.506 341.208 124.2 332.202 131.728 320.648C133.684 317.622 137.079 315.887 140.659 316.256C147.522 316.92 156.305 318.323 166.084 321.276C188.004 327.846 195.938 336.446 213.245 342.389C223.172 345.822 237.933 348.922 258.045 346.708C260.849 346.413 263.469 348.147 264.355 350.842C270.481 369.039 276.57 387.273 282.695 405.471L284.725 412.521C286.681 419.349 292.917 424.037 300.04 424.037H354.175C355.541 424.074 360.818 424.148 363.438 420.678C366.833 416.175 363.179 408.977 361.888 406.393L361.925 406.356Z" fill="#FED587"/>
<mask id="mask0_255_494" style="mask-type:luminance" maskUnits="userSpaceOnUse" x="40" y="236" width="325" height="189">
<path d="M361.925 406.356C355.91 394.545 340.927 390.595 333.141 389.267C330.779 388.861 328.86 387.199 328.085 384.948C324.543 374.354 314.395 344.198 309.376 329.175C307.494 323.601 307.162 317.696 308.306 311.937C309.302 306.991 310.225 301.787 311 296.398C314.136 274.288 314.284 254.577 313.251 238.41L85.4158 236.712C82.0577 241.252 78.4413 246.641 74.8618 252.805C74.0499 252.805 73.2381 252.805 72.3893 252.842L43.7531 327.883C41.8711 332.792 40.9116 337.96 40.8747 343.201L40.6164 388.528H40.5795V412.41C40.5795 418.759 45.7089 423.889 52.0192 423.926C84.2349 424.111 108.037 424 117.964 423.815C120.104 423.779 124.864 423.594 127.226 420.457C130.658 415.88 126.451 407.685 125.676 406.172C119.329 393.733 102.354 390.042 93.9771 388.934C91.763 388.639 90.1024 386.72 90.1024 384.468C90.1762 374.723 90.2131 364.979 90.2869 355.271C90.2869 351.1 92.9808 347.409 96.9662 346.228C97.7781 346.007 98.5899 345.711 99.4018 345.453C111.506 341.208 124.2 332.202 131.728 320.648C133.684 317.622 137.079 315.887 140.659 316.256C147.522 316.92 156.305 318.323 166.084 321.276C188.004 327.846 195.938 336.446 213.245 342.389C223.172 345.822 237.933 348.922 258.045 346.708C260.849 346.413 263.469 348.147 264.355 350.842C270.481 369.039 276.57 387.273 282.695 405.471L284.725 412.521C286.681 419.349 292.917 424.037 300.04 424.037H354.175C355.541 424.074 360.818 424.148 363.438 420.678C366.833 416.175 363.179 408.977 361.888 406.393L361.925 406.356Z" fill="white"/>
</mask>
<g mask="url(#mask0_255_494)">
<path d="M240.811 244.98C231.955 273.07 208.817 291.858 184.831 291.673C158.298 291.452 138.481 267.57 133.315 249.151C130.252 238.299 139.404 227.89 150.511 229.699C180.587 234.793 210.699 239.887 240.774 244.98H240.811Z" fill="#DE4A4A"/>
</g>
<path d="M201.621 238.964C204.315 227.964 207.193 216.78 210.293 205.411C216.64 182.12 223.43 159.863 230.442 138.639C235.387 118.965 251.919 104.496 271.551 104.496H303.25C322.439 104.496 337.975 121.438 337.975 142.33C337.975 145.8 340.558 148.568 343.695 148.568H371.372C379.047 148.568 385.284 155.36 385.284 163.738C385.284 192.492 363.881 207.035 337.495 207.035H323.768C321.627 207.257 320.299 207.958 319.524 208.475C316.535 210.542 316.018 214.049 314.062 230.363C313.693 233.353 313.509 234.977 313.361 236.306C313.361 236.306 313.251 237.34 313.14 238.299C312.623 243.356 313.103 257.013 313.103 257.013C275.905 250.96 238.708 244.943 201.51 238.89L201.621 238.964Z" fill="#FED587"/>
<mask id="mask1_255_494" style="mask-type:luminance" maskUnits="userSpaceOnUse" x="201" y="104" width="185" height="154">
<path d="M201.621 238.964C204.315 227.964 207.193 216.78 210.293 205.411C216.64 182.12 223.43 159.863 230.442 138.639C235.387 118.965 251.919 104.496 271.551 104.496H303.25C322.439 104.496 337.975 121.438 337.975 142.33C337.975 145.8 340.558 148.568 343.695 148.568H371.372C379.047 148.568 385.284 155.36 385.284 163.738C385.284 192.492 363.881 207.035 337.495 207.035H323.768C321.627 207.257 320.299 207.958 319.524 208.475C316.535 210.542 316.018 214.049 314.062 230.363C313.693 233.353 313.509 234.977 313.361 236.306C313.361 236.306 313.251 237.34 313.14 238.299C312.623 243.356 313.103 257.013 313.103 257.013C275.905 250.96 238.708 244.943 201.51 238.89L201.621 238.964Z" fill="white"/>
</mask>
<g mask="url(#mask1_255_494)">
<path d="M361.187 191.681C354.397 191.681 348.898 188.506 346.61 186.919C345.171 185.922 344.802 183.929 345.798 182.49C346.795 181.05 348.787 180.681 350.227 181.678C352.367 183.154 358.087 186.439 364.582 184.963C372.958 183.006 379.047 174.037 378.973 163.628C378.973 161.856 380.376 160.417 382.147 160.417C383.918 160.417 385.321 161.856 385.358 163.591C385.431 176.953 377.313 188.58 366.021 191.201C364.36 191.57 362.737 191.754 361.187 191.754V191.681Z" fill="#F8B600"/>
<path d="M376.317 141.887C372.036 143.179 368.014 152.85 372.811 159.235C378.051 166.211 389.491 163.775 391.557 159.715C394.399 154.178 382.553 139.967 376.28 141.887H376.317Z" fill="#70370F"/>
<path d="M346.352 215.193L219.593 203.972C208.743 203.012 199.149 211.022 198.189 221.874L204.352 222.427L195.311 243.762L234.87 254.023L240.479 245.977C243.468 234.497 254.281 226.857 266.089 227.89L344.581 234.83L346.315 215.156L346.352 215.193Z" fill="#DE4A4A"/>
</g>
<path d="M217.969 249.41C213.688 252.769 207.525 252.067 203.688 248.228L199.37 243.947L121.359 165.916C117.226 161.782 117.226 155.064 121.359 150.93L139.515 132.77C142.245 130.039 145.936 128.304 149.773 128.23C154.054 128.156 156.01 129.669 157.449 131.478C158.04 131.847 158.63 132.327 159.147 132.844L215.644 189.355C213.208 196.774 210.736 204.156 208.3 212.019L151.951 155.692C151.213 154.954 150.216 154.585 149.22 154.585C148.224 154.585 147.227 154.954 146.489 155.692C144.976 157.205 144.976 159.604 146.489 161.118L205.754 220.36L218.965 233.575C223.393 238.041 223.061 245.46 217.969 249.447V249.41Z" fill="#C6C6C6"/>
<path d="M206.529 192.603C224.906 194.633 243.247 196.626 261.624 198.656C266.163 199.136 270.222 196.885 271.551 193.083C275.463 182.083 281.072 166.101 285.168 154.584C286.792 149.97 283.839 144.729 278.599 142.847L240.959 129.374C236.641 127.824 231.918 129.005 229.482 132.29C219.962 145.172 208.448 163.849 198.337 178.392C194.462 183.966 198.964 191.791 206.566 192.603H206.529Z" fill="#F8B600"/>
<path d="M315.538 152.111C314.579 152.111 313.878 151.004 314.062 149.823C314.616 146.021 317.236 143.068 320.262 143.068C323.288 143.068 325.871 146.021 326.462 149.823C326.646 151.004 325.908 152.111 324.985 152.111H315.575H315.538Z" fill="#70370F"/>
<path d="M320.336 158.866C323.694 158.866 326.425 155.323 326.425 150.967C326.425 146.612 323.694 143.068 320.336 143.068C316.978 143.068 314.247 146.612 314.247 150.967C314.247 155.323 316.978 158.866 320.336 158.866Z" fill="#70370F"/>
<path d="M312.402 113.355L300.113 107.744L308.195 90.0636C309.191 87.8859 311.738 86.9262 313.915 87.9228C318.528 90.0267 320.557 95.4896 318.454 100.103L312.402 113.355Z" fill="#FED587"/>
<path d="M308.453 115.938L306.608 102.576L325.871 99.9188C328.233 99.5866 330.41 101.248 330.742 103.61C331.443 108.63 327.901 113.281 322.882 113.982L308.453 115.975V115.938Z" fill="#FED587"/>
<path d="M300.335 250.665L307.088 238.964L323.915 248.671C325.982 249.852 326.683 252.51 325.502 254.577C322.956 258.97 317.347 260.483 312.955 257.936L300.335 250.665Z" fill="#FED587"/>
<path d="M309.044 246.826L307.199 233.464L326.462 230.806C328.823 230.474 331.001 232.135 331.333 234.497C332.034 239.517 328.491 244.168 323.473 244.87L309.044 246.863V246.826Z" fill="#FED587"/>
<path d="M93.2022 201.979H-20.4199C-25.9553 201.979 -30.3836 197.328 -30.0883 191.791C-26.6933 127.861 -23.2983 63.9303 -19.9033 0.0368652H80.7661C88.1097 63.7458 95.4901 127.492 102.834 191.2C103.498 196.959 98.9958 202.015 93.2022 202.015V201.979Z" fill="#DAE7F2"/>
<path d="M84.973 252.732C67.8134 253.876 51.9454 245.017 45.2661 230.88C38.6606 216.928 41.7973 199.432 52.9049 187.14C56.8534 182.785 64.1601 184.52 65.4148 190.315C66.7802 196.737 69.105 204.267 73.0904 212.166C78.9948 223.793 86.2646 231.84 91.5047 236.749L84.973 252.732Z" fill="#FED587"/>
<path d="M60.219 248.632L78.3077 246.369L79.8742 258.895L66.5823 260.558C61.7855 261.158 57.4186 257.761 56.8185 252.963C56.5529 250.839 58.054 248.866 60.2144 248.595L60.219 248.632Z" fill="#FED587"/>
<path d="M316.756 273.587C316.646 274.989 315.502 276.133 314.099 276.207C301.11 276.835 286.312 276.798 270.038 275.395C253.58 273.993 238.819 271.446 226.014 268.567C224.168 268.161 223.283 266.057 224.168 264.396L227.969 257.53C228.56 256.46 229.778 255.869 230.995 256.127C243.025 258.564 256.495 260.631 271.219 261.923C287.013 263.288 301.553 263.473 314.505 263.03C316.203 262.956 317.568 264.396 317.421 266.13L316.756 273.623V273.587Z" fill="#70370F"/>
<path d="M143.574 102.392C136.858 100.214 130.4 99.9926 124.422 101.1C121.801 101.58 119.145 100.768 117.263 98.8853L63.3852 44.9948C60.5806 42.1896 56.0047 42.1896 53.2001 44.9948L35.3025 62.8968C32.498 65.7021 32.498 70.279 35.3025 73.0843L89.7334 127.528C91.5785 129.374 92.3904 131.995 91.9844 134.579C91.025 140.706 91.4678 147.276 94.1986 154.178C100.251 169.534 114.901 180.385 131.396 180.422C155.346 180.459 174.387 159.457 171.066 134.911C169.036 119.814 158.113 107.117 143.648 102.466L143.574 102.392Z" fill="#815F4E"/>
</g>
<path d="M267.276 73.7198C263.903 73.7198 260.961 73.0821 258.451 71.8068C255.942 70.5314 253.988 68.7006 252.589 66.3144C251.19 63.9282 250.491 61.1101 250.491 57.8599C250.491 55.3914 250.881 53.1904 251.663 51.2568C252.445 49.282 253.576 47.6158 255.057 46.2581C256.538 44.8593 258.307 43.8102 260.364 43.1108C262.421 42.3703 264.725 42 267.276 42C270.65 42 273.591 42.6377 276.101 43.9131C278.611 45.1884 280.544 47.0192 281.902 49.4054C283.301 51.7504 284 54.5686 284 57.8599C284 60.2872 283.609 62.4883 282.827 64.4631C282.046 66.4378 280.914 68.1246 279.433 69.5234C277.993 70.8811 276.224 71.9302 274.126 72.6707C272.069 73.3701 269.786 73.7198 267.276 73.7198ZM267.276 65.6356C268.387 65.6356 269.374 65.3682 270.238 64.8333C271.102 64.2574 271.761 63.414 272.213 62.3031C272.707 61.1512 272.954 59.6701 272.954 57.8599C272.954 55.1035 272.419 53.1287 271.349 51.9356C270.279 50.7014 268.922 50.0842 267.276 50.0842C266.165 50.0842 265.178 50.3517 264.314 50.8865C263.45 51.4213 262.771 52.2647 262.277 53.4167C261.784 54.5275 261.537 56.0086 261.537 57.8599C261.537 60.5752 262.072 62.55 263.141 63.7842C264.211 65.0185 265.589 65.6356 267.276 65.6356Z" fill="#DE4A4A"/>
<path d="M230.806 84.8279C228.543 84.8279 226.424 84.6634 224.45 84.3342C222.475 84.0462 220.767 83.6143 219.328 83.0383C218.134 82.6269 217.291 82.0303 216.797 81.2486C216.304 80.467 216.077 79.6441 216.119 78.7802C216.16 77.9162 216.386 77.1345 216.797 76.4351C217.25 75.7357 217.846 75.2215 218.587 74.8923C219.328 74.6043 220.15 74.6249 221.055 74.954C222.866 75.6946 224.511 76.1677 225.992 76.3734C227.473 76.6203 228.728 76.7437 229.757 76.7437C232.266 76.7437 234.138 76.2089 235.373 75.1392C236.648 74.1107 237.286 72.4856 237.286 70.264V66.3761H237.779C237.162 68.104 235.907 69.5234 234.015 70.6342C232.122 71.7039 230.065 72.2387 227.844 72.2387C225.128 72.2387 222.763 71.6216 220.747 70.3874C218.731 69.112 217.147 67.3429 215.995 65.0802C214.884 62.8174 214.329 60.1638 214.329 57.1194C214.329 54.8155 214.658 52.7378 215.316 50.8865C215.975 49.0351 216.88 47.4512 218.032 46.1347C219.225 44.8182 220.644 43.8102 222.29 43.1108C223.976 42.3703 225.828 42 227.844 42C230.148 42 232.205 42.5348 234.015 43.6045C235.866 44.6742 237.101 46.073 237.718 47.8009L237.101 50.3311V47.6158C237.101 45.8467 237.574 44.489 238.52 43.5428C239.507 42.5965 240.865 42.1234 242.593 42.1234C244.321 42.1234 245.637 42.5965 246.542 43.5428C247.489 44.489 247.962 45.8467 247.962 47.6158V68.968C247.962 74.2341 246.481 78.1836 243.519 80.8167C240.556 83.4908 236.319 84.8279 230.806 84.8279ZM231.238 64.1545C232.472 64.1545 233.521 63.8871 234.385 63.3522C235.249 62.7763 235.928 61.974 236.422 60.9455C236.915 59.8758 237.162 58.6004 237.162 57.1194C237.162 54.8977 236.627 53.1698 235.558 51.9356C234.488 50.7014 233.048 50.0842 231.238 50.0842C230.086 50.0842 229.057 50.3722 228.152 50.9482C227.247 51.483 226.548 52.2853 226.054 53.355C225.602 54.3835 225.375 55.6383 225.375 57.1194C225.375 59.341 225.91 61.0689 226.98 62.3031C228.049 63.5374 229.469 64.1545 231.238 64.1545Z" fill="#DE4A4A"/>
<path d="M196.459 73.7198C193.086 73.7198 190.144 73.0821 187.635 71.8068C185.125 70.5314 183.171 68.7006 181.772 66.3144C180.373 63.9282 179.674 61.1101 179.674 57.8599C179.674 55.3914 180.065 53.1904 180.846 51.2568C181.628 49.282 182.759 47.6158 184.241 46.2581C185.722 44.8593 187.491 43.8102 189.548 43.1108C191.605 42.3703 193.909 42 196.459 42C199.833 42 202.775 42.6377 205.284 43.9131C207.794 45.1884 209.727 47.0192 211.085 49.4054C212.484 51.7504 213.183 54.5686 213.183 57.8599C213.183 60.2872 212.793 62.4883 212.011 64.4631C211.229 66.4378 210.098 68.1246 208.617 69.5234C207.177 70.8811 205.408 71.9302 203.309 72.6707C201.252 73.3701 198.969 73.7198 196.459 73.7198ZM196.459 65.6356C197.57 65.6356 198.558 65.3682 199.422 64.8333C200.286 64.2574 200.944 63.414 201.396 62.3031C201.89 61.1512 202.137 59.6701 202.137 57.8599C202.137 55.1035 201.602 53.1287 200.532 51.9356C199.463 50.7014 198.105 50.0842 196.459 50.0842C195.349 50.0842 194.361 50.3517 193.497 50.8865C192.633 51.4213 191.955 52.2647 191.461 53.4167C190.967 54.5275 190.72 56.0086 190.72 57.8599C190.72 60.5752 191.255 62.55 192.325 63.7842C193.394 65.0185 194.773 65.6356 196.459 65.6356Z" fill="#DE4A4A"/>
<path d="M133.431 73.5964C131.703 73.5964 130.366 73.1233 129.419 72.177C128.473 71.2308 128 69.8526 128 68.0423V47.6158C128 45.8467 128.453 44.489 129.358 43.5428C130.304 42.5965 131.641 42.1234 133.369 42.1234C135.097 42.1234 136.413 42.5965 137.318 43.5428C138.224 44.489 138.676 45.8467 138.676 47.6158V51.0099L137.997 47.986C138.861 46.1758 140.137 44.7359 141.823 43.6662C143.551 42.5554 145.588 42 147.933 42C150.155 42 152.047 42.5348 153.61 43.6045C155.215 44.6742 156.367 46.2992 157.066 48.4797H156.202C157.148 46.4638 158.568 44.8799 160.46 43.7279C162.353 42.576 164.451 42 166.755 42C169.141 42 171.095 42.4731 172.618 43.4194C174.14 44.3245 175.271 45.7644 176.012 47.7392C176.793 49.6728 177.184 52.1207 177.184 55.0829V68.0423C177.184 69.8526 176.691 71.2308 175.703 72.177C174.757 73.1233 173.399 73.5964 171.63 73.5964C169.902 73.5964 168.565 73.1233 167.619 72.177C166.673 71.2308 166.2 69.8526 166.2 68.0423V55.3914C166.2 53.6224 165.932 52.347 165.397 51.5653C164.862 50.7836 163.978 50.3928 162.744 50.3928C161.221 50.3928 160.049 50.9276 159.226 51.9973C158.444 53.067 158.054 54.5892 158.054 56.564V68.0423C158.054 69.8526 157.58 71.2308 156.634 72.177C155.688 73.1233 154.33 73.5964 152.561 73.5964C150.792 73.5964 149.435 73.1233 148.488 72.177C147.542 71.2308 147.069 69.8526 147.069 68.0423V55.3914C147.069 53.6224 146.802 52.347 146.267 51.5653C145.732 50.7836 144.847 50.3928 143.613 50.3928C142.132 50.3928 140.98 50.9276 140.157 51.9973C139.376 53.067 138.985 54.5892 138.985 56.564V68.0423C138.985 71.745 137.133 73.5964 133.431 73.5964Z" fill="#DE4A4A"/>
<defs>
<clipPath id="clip0_255_494">
<rect width="412" height="424" fill="white"/>
</clipPath>
</defs>
</svg>
