<svg width="154" height="135" viewBox="0 0 154 135" fill="none" xmlns="http://www.w3.org/2000/svg">
<path d="M86.2908 19.4729L66.3147 19.5845C48.5948 19.6836 34.3102 34.1423 34.4092 51.8789L34.5688 80.4941C34.6678 98.2307 49.1129 112.529 66.8328 112.43L86.8088 112.318C104.529 112.219 118.813 97.7603 118.714 80.0237L118.555 51.4085C118.456 33.6719 104.011 19.3738 86.2908 19.4729Z" fill="#FED587"/>
<path d="M79.4564 24.2939L66.7453 21.6106L70.6111 3.307C71.0902 1.05146 73.2724 -0.387419 75.5258 0.0922073C80.2981 1.09683 83.348 5.80235 82.3444 10.5727L79.4499 24.2939H79.4564Z" fill="#FED588"/>
<path d="M76.2511 27.5217L71.7119 15.3625L89.2277 8.80978C91.371 7.9996 93.7669 9.10144 94.5763 11.2533C96.2922 15.8227 93.9417 20.9365 89.3831 22.6476L76.2641 27.5606V27.5282L76.2511 27.5217Z" fill="#FED588"/>
<path d="M24.7722 90.3657C17.481 85.8287 10.1898 81.2917 2.90507 76.7611C-0.261364 74.7908 -0.960699 70.4806 1.40927 67.6029C10.274 56.8761 19.1387 46.1428 28.0034 35.416C29.2208 33.9383 31.0598 33.1151 32.97 33.1864C35.0356 33.2642 37.1012 33.3355 39.1669 33.4133C43.0521 33.5559 45.83 37.2243 44.9234 41.003C41.2843 56.1955 37.6387 71.3815 33.9996 86.574C33.0218 90.6573 28.3337 92.5823 24.7658 90.3657H24.7722Z" fill="#F8B708"/>
<path d="M126.422 91.163C134.244 87.6306 142.073 84.0982 149.895 80.5594C153.295 79.0233 154.557 74.8427 152.582 71.6798C145.207 59.8706 137.838 48.0679 130.463 36.2587C129.446 34.6383 127.736 33.5754 125.833 33.3939C123.774 33.193 121.714 32.9985 119.662 32.7976C115.796 32.4282 112.552 35.6948 112.953 39.5642C114.559 55.1003 116.165 70.6428 117.777 86.1788C118.211 90.3593 122.602 92.8871 126.428 91.1565L126.422 91.163Z" fill="#F8B708"/>
<path d="M47.8698 105.636H105.643V125.735C105.643 130.596 101.699 134.543 96.8426 134.543H56.6762C51.8197 134.543 47.8762 130.596 47.8762 125.735V105.636H47.8698Z" fill="#FED587"/>
<mask id="mask0_228_834" style="mask-type:luminance" maskUnits="userSpaceOnUse" x="47" y="105" width="59" height="30">
<path d="M47.8698 105.636H105.643V125.735C105.643 130.596 101.699 134.543 96.8426 134.543H56.6762C51.8197 134.543 47.8762 130.596 47.8762 125.735V105.636H47.8698Z" fill="white"/>
</mask>
<g mask="url(#mask0_228_834)">
<path d="M116.865 117.27H38.3836V140.13H116.865V117.27Z" fill="#DE4A4A"/>
</g>
<path d="M76.413 89.8148C67.9368 89.8148 61.6492 86.3342 58.5929 84.2083C57.7122 83.5926 57.4985 82.3805 58.1072 81.4991C58.7224 80.6176 59.9333 80.3972 60.8139 81.013C63.5789 82.938 69.3937 86.1463 77.203 85.9129C84.6431 85.699 90.0824 82.4583 92.6595 80.5398C93.5208 79.8981 94.7381 80.0796 95.3792 80.9417C96.0202 81.8037 95.8389 83.0222 94.9777 83.6639C92.0314 85.8481 85.8216 89.549 77.3195 89.7953C77.0152 89.8018 76.7173 89.8083 76.4194 89.8083L76.413 89.8148Z" fill="#F8B708"/>
<path d="M76.8533 87.7602C75.7978 87.7602 74.9301 86.9111 74.9107 85.8481L74.7164 74.9788C74.697 73.9028 75.5517 73.0214 76.6266 73.0019C77.6886 72.9501 78.5822 73.838 78.6016 74.914L78.7959 85.7833C78.8153 86.8592 77.9606 87.7407 76.8857 87.7602H76.8533Z" fill="#F8B708"/>
<path d="M73.0873 69.3571L80.2488 69.3171C81.4597 69.3103 82.4559 70.2899 82.4627 71.5084L82.4643 71.7936C82.477 74.0621 80.6483 75.9131 78.3819 75.9257L75.0343 75.9445C72.7679 75.9571 70.9187 74.1267 70.906 71.8582L70.9044 71.5731C70.8977 70.361 71.8764 69.3639 73.0937 69.3571L73.0873 69.3571Z" fill="#713811"/>
<path d="M56.9741 68.3547C59.7844 68.1992 61.9018 65.101 61.7011 61.4585C61.5004 57.8159 59.0462 54.977 56.2359 55.1326C53.4256 55.2881 51.3082 58.3863 51.5089 62.0288C51.7097 65.6714 54.1638 68.5103 56.9741 68.3547Z" fill="#713811"/>
<path d="M97.8204 67.8945C100.631 67.739 102.748 64.6408 102.547 60.9983C102.347 57.3492 99.8926 54.5168 97.0823 54.6724C94.272 54.8279 92.1545 57.9261 92.3553 61.5686C92.556 65.2177 95.0102 68.0501 97.8204 67.8945Z" fill="#713811"/>
</svg>
